<svg id="Layer_1" height="512" viewBox="0 0 512 512" width="512" xmlns="http://www.w3.org/2000/svg" data-name="Layer 1"><path d="m327.634 26.36a6 6 0 0 0 -8.387 1.282l-18.225 24.8a6 6 0 0 0 9.67 7.106l18.225-24.8a6 6 0 0 0 -1.283-8.388z"/><path d="m206.161 62a6 6 0 0 0 4.83-9.553l-18.225-24.8a6 6 0 0 0 -9.67 7.105l18.225 24.8a5.991 5.991 0 0 0 4.84 2.448z"/><path d="m308.076 284.848c-17.4 1.359-35.685 2.046-53.569 2.046-17.692 0-34.968-.67-50.594-2a300.3 300.3 0 0 1 -12.262 41.26c-1.985 5.679-4.047 10.9-6.162 15.716 43.1 3.366 93.51 3.341 140.992-.069-2.105-4.8-4.157-10-6.132-15.647a300.29 300.29 0 0 1 -12.273-41.306z"/><path d="m305.583 273.011q-.755-3.906-1.457-8.012a322.74 322.74 0 0 1 -4.379-42.368c-14.351 1.055-29.839 1.584-45.011 1.584-14.935 0-29.555-.513-42.485-1.535a322.752 322.752 0 0 1 -4.377 42.32q-.7 4.141-1.468 8.066c30.035 2.458 66.145 2.44 99.177-.055z"/><path d="m256.32 486.873 2.7-10.436a73.687 73.687 0 0 1 4.416-12.437h-13.8a67.218 67.218 0 0 1 4.518 13.649z"/><path d="m256.527 112.983c-18.618 0-38.838 10.277-54.691 27.642 7.676 23.632 10.458 47.784 10.593 70.034 25.816 2.1 58.793 2.08 87.142-.047.135-21.714 2.8-45.238 10.073-68.322-17.124-18.663-36.344-29.307-53.117-29.307z"/><path d="m476.707 318.182c2.767-23.514-8.25-63.047-76.444-117.849-32.391-26.03-65.927-45.852-79.479-53.507-7.066 22.836-9.45 46.283-9.2 68.3.028.163.054.327.068.5a5.96 5.96 0 0 1 -.044 1.378c1.05 57.131 19.651 104.135 19.921 104.805.036.089.07.179.1.269a192.012 192.012 0 0 0 8.713 21.113 5.963 5.963 0 0 1 1.323 2.64c9.894 19.282 20.195 28.972 27.95 33.827 10.845 6.789 18.74 5.686 19.07 5.635 82.3-12.91 87.952-66.393 88-66.932.009-.061.015-.121.022-.179z"/><path d="m35.293 318.182c.007.058.013.115.018.173.01.107 1.45 13.645 12.828 28.509 15.154 19.8 41.127 33.082 75.11 38.413l.143.024c.247.036 8.143 1.141 18.988-5.649 7.754-4.855 18.054-14.543 27.947-33.821a5.952 5.952 0 0 1 1.33-2.654 192.231 192.231 0 0 0 8.709-21.105c.031-.09.065-.18.1-.269.269-.67 18.865-47.758 19.906-104.908a5.959 5.959 0 0 1 -.023-1.337c.009-.1.029-.2.044-.3.271-22.063-2.1-45.561-9.178-68.43-13.554 7.656-47.091 27.479-79.479 53.507-37.636 30.246-81.455 75.245-76.443 117.847z"/><path d="m253.838 356.425c-25.665 0-50.657-1-73.937-2.984-1.991 3.746-4.012 7.175-6.049 10.315 8.41 24.758 20.328 45.414 34.584 59.843 14.715 14.894 31.654 22.766 48.987 22.766 32.073 0 62.155-27.321 80.471-73.085.43-1.074 1.524-4.033 2.379-6.353a133.073 133.073 0 0 1 -8.193-13.52c-25.98 2.003-52.437 3.018-78.242 3.018z"/><path d="m256 42.262a56.506 56.506 0 0 0 -51.636 79.438c16-13.184 34.583-20.716 52.163-20.716 10.2 0 28.9 3.21 50.528 22a56.524 56.524 0 0 0 -51.055-80.722z"/></svg>